<?xml version="1.0" encoding="utf-8"?>
<!-- Generator: Adobe Illustrator 26.2.1, SVG Export Plug-In . SVG Version: 6.00 Build 0)  -->
<svg version="1.1" id="Layer_1" xmlns="http://www.w3.org/2000/svg" xmlns:xlink="http://www.w3.org/1999/xlink" x="0px" y="0px"
	 viewBox="0 0 351 244" style="enable-background:new 0 0 351 244;" xml:space="preserve">
<style type="text/css">
	.st0{fill:#555555;}
</style>
<path class="st0" d="M306.7,54.8v129.4h12.4l0-129.4c0-10.6-10.6-19.9-21.2-19.9H70.2v12.4H298C301.7,47.3,306.7,51.7,306.7,54.8
	L306.7,54.8z"/>
<path class="st0" d="M331.5,29.9v129.4H344V29.9c0-10.6-10.6-19.9-21.2-19.9H95.1v12.4h227.7C326.6,22.4,331.5,26.8,331.5,29.9
	L331.5,29.9z"/>
<path class="st0" d="M273.1,59.8H29.2C18.6,59.8,8,69.7,8,80.3v133.8c0,10,10.6,19.9,21.2,19.9h243.9c10.6,0,21.2-10,21.2-19.9V80.3
	C294.2,69.7,283.6,59.8,273.1,59.8L273.1,59.8z M280.5,167.4c-1.9,0-3.1,0.6-5,0.6c-0.6,0-1.2,0-1.9,0.6c-1.2,0-2.5,0.6-3.7,0.6
	c-0.6,0-1.2,0.6-1.9,0.6c-1.2,0.6-2.5,0.6-3.1,1.2c-0.6,0-1.2,0.6-1.9,0.6c-1.2,0.6-1.9,0.6-3.1,1.2c-0.6,0.6-1.2,0.6-1.9,1.2
	c-1.2,0.6-1.9,1.2-3.1,1.9c-0.6,0.6-1.2,0.6-1.9,1.2c-1.2,0.6-1.9,1.2-3.1,2.5l-1.2,1.2c-1.2,1.2-2.5,2.5-4.4,3.7
	c-1.2,1.2-2.5,2.5-3.7,3.7c-0.6,0.6-0.6,1.2-1.2,1.2c-0.6,1.2-1.2,1.9-2.5,3.1c-0.6,0.6-0.6,1.2-1.2,1.9c-0.6,1.2-1.2,1.9-1.9,3.1
	c-0.6,0.6-0.6,1.2-1.2,1.9c-0.6,1.2-1.2,1.9-1.2,3.1c0,0.6-0.6,1.2-0.6,1.9c-0.6,1.2-0.6,1.9-1.2,3.1c0,0.6-0.6,1.2-0.6,1.9
	c-0.6,1.2-0.6,2.5-0.6,3.7c0,0.6-0.6,1.2-0.6,1.9c0,1.9-0.6,3.1-0.6,5v1.2l-151.8,0v-0.6c0-1.9-0.6-3.7-0.6-5c0-0.6,0-1.2-0.6-1.9
	c0-1.2-0.6-2.5-0.6-3.7c0-0.6-0.6-1.2-0.6-1.9c-0.6-1.2-0.6-2.5-1.2-3.1c0-0.6-0.6-1.2-0.6-1.9c-0.6-1.2-1.2-1.9-1.2-3.1
	c-0.6-0.6-0.6-1.2-1.2-1.9c-0.6-1.2-1.2-1.9-1.9-3.1c-0.6-0.6-0.6-1.2-1.2-1.9c-0.6-1.2-1.2-1.9-2.5-3.1l-1.2-1.2
	c-2.5-3.1-5-5.6-8.1-7.5c-0.6-0.6-0.6-0.6-1.2-1.2c-1.2-0.6-1.9-1.9-3.1-2.5c-0.6-0.6-1.2-0.6-1.9-1.2c-1.2-0.6-1.9-1.2-3.1-1.9
	c-0.6-0.6-1.2-0.6-1.9-1.2c-1.2-0.6-1.9-1.2-3.1-1.2c-0.6,0-1.2-0.6-1.9-0.6c-1.2-0.6-2.5-0.6-3.1-1.2c-0.6,0-1.2-0.6-1.9-0.6
	c-1.2-0.6-2.5-0.6-3.7-0.6c-0.6,0-1.2-0.6-1.9-0.6c-1.2,0-3.1-0.6-5-0.6h-1.2V127h1.2c1.9,0,3.1-0.6,5-0.6c0.6,0,1.2,0,1.9-0.6
	c1.2,0,2.5-0.6,3.7-0.6c0.6,0,1.2-0.6,2.5-0.6c1.2-0.6,2.5-0.6,3.1-1.2c0.6,0,1.2-0.6,1.9-0.6c1.2-0.6,1.9-0.6,3.1-1.2
	c0.6-0.6,1.2-0.6,1.9-1.2c1.2-0.6,1.9-1.2,3.1-1.9c0.6-0.6,1.2-0.6,1.9-1.2c1.2-0.6,1.9-1.2,3.1-2.5c0.6-0.6,1.2-0.6,1.2-1.2
	c1.2-1.2,2.5-2.5,4.4-3.7c1.2-1.2,2.5-2.5,3.7-3.7c0.6-0.6,0.6-1.2,1.2-1.2c0.6-1.2,1.2-1.9,2.5-3.1c0.6-0.6,0.6-1.2,1.2-1.9
	c0.6-1.2,1.2-1.9,1.9-3.1c0.6-0.6,0.6-1.2,1.2-1.9c0.6-1.2,1.2-1.9,1.2-3.1c0-0.6,0.6-1.2,0.6-1.9c0.6-1.2,0.6-2.5,1.2-3.1
	c0-0.6,0.6-1.2,0.6-1.9c0.6-1.2,0.6-2.5,0.6-3.7c0-0.6,0-1.2,0.6-1.9c0.6-1.9,0.6-3.1,0.6-5v-0.6H227v1.2c0,1.9,0.6,3.1,0.6,5
	c0,0.6,0,1.2,0.6,1.9c0,1.2,0.6,2.5,0.6,3.7c0,0.6,0.6,1.2,0.6,2.5c0.6,1.2,0.6,1.9,1.2,3.1c0,0.6,0.6,1.2,0.6,1.9
	c0.6,1.2,0.6,1.9,1.2,3.1c0.6,0.6,0.6,1.2,1.2,1.9c0.6,1.2,1.2,1.9,1.9,3.1c0.6,0.6,0.6,1.2,1.2,1.9c0.6,1.2,1.2,1.9,1.9,3.1
	c0.6,0.6,0.6,1.2,1.2,1.2c1.2,1.2,2.5,2.5,3.7,3.7s2.5,2.5,4.4,3.7c0.6,0.6,1.2,0.6,1.2,1.2c1.2,0.6,1.9,1.2,3.1,1.9
	c0.6,0.6,1.2,0.6,1.9,1.2c1.2,0.6,1.9,1.2,3.1,1.9c0.6,0.6,1.2,0.6,1.9,1.2c1.2,0.6,1.9,1.2,3.1,1.2c0.6,0,1.2,0.6,1.9,0.6
	c1.2,0.6,1.9,0.6,3.1,1.2c0.6,0,1.2,0.6,2.5,0.6c1.2,0.6,2.5,0.6,3.7,0.6c0.6,0,1.2,0.6,1.9,0.6c1.2,0,3.1,0.6,5,0.6h1.2v41.1
	C281.2,167.4,281.2,167.4,280.5,167.4L280.5,167.4z M281.8,80.3v33.6h-0.6c-2.5,0-5-0.6-6.8-1.2h-0.6c-2.5-0.6-4.4-1.2-6.8-2.5
	c-0.6,0-0.6-0.6-1.2-0.6c-1.9-1.2-4.4-1.9-6.2-3.7c-0.6,0-0.6-0.6-1.2-0.6c-1.9-1.2-3.7-3.1-5.6-4.4c-1.9-1.9-3.1-3.7-4.4-5.6
	c0-0.6-0.6-0.6-0.6-1.2c-1.2-1.9-2.5-3.7-3.7-5.6c0-0.6-0.6-0.6-0.6-1.2c-1.2-1.9-1.9-4.4-2.5-6.8v-0.6c-0.6-2.5-1.2-4.4-1.2-6.8
	v-0.6h33.6C276.8,72.2,281.8,76.6,281.8,80.3L281.8,80.3z M29.2,72.2h33.6v0.6c-0.6,2.5-0.6,5-1.2,6.8v0.6c-0.6,2.5-1.9,4.4-2.5,6.8
	c0,0.6-0.6,0.6-0.6,1.2c-1.2,1.9-2.5,3.7-3.7,5.6c0,0.6-0.6,0.6-0.6,1.2c-1.2,1.9-3.1,3.7-4.4,5.6c-1.9,1.9-3.7,3.1-5.6,4.4
	c-0.6,0-0.6,0.6-1.2,0.6c-1.9,1.2-3.7,2.5-6.2,3.7c-0.6,0-0.6,0.6-1.2,0.6c-1.9,1.2-4.4,1.9-6.8,2.5h-0.6c-2.5,0.6-4.4,1.2-6.8,1.2
	h-0.6V80.3C20.5,76.6,25.4,72.2,29.2,72.2L29.2,72.2z M20.5,214.1v-33.6h0.6c2.5,0,5,0.6,6.8,1.2h0.6c2.5,0.6,4.4,1.2,6.8,2.5
	c0.6,0,0.6,0.6,1.2,0.6c1.9,1.2,4.4,1.9,6.2,3.7c0.6,0,0.6,0.6,1.2,0.6c1.9,1.2,3.7,3.1,5.6,4.4c1.9,1.9,3.1,3.7,4.4,5.6
	c0,0.6,0.6,0.6,0.6,1.2c1.2,1.9,2.5,3.7,3.7,5.6c0,0.6,0.6,0.6,0.6,1.2c1.2,1.9,1.9,4.4,2.5,6.8v0.6c0.6,2.5,1.2,4.4,1.2,6.8v0.6
	H29.2C25.4,221.6,20.4,217.2,20.5,214.1L20.5,214.1z M273.1,221.6h-33.6v-0.6c0.6-2.5,0.6-5,1.2-6.8v-0.6c0.6-2.5,1.9-4.4,2.5-6.8
	c0-0.6,0.6-0.6,0.6-1.2c1.2-1.9,2.5-3.7,3.7-5.6c0-0.6,0.6-0.6,0.6-1.2c1.2-1.9,3.1-3.7,4.4-5.6c1.9-1.9,3.7-3.1,5.6-4.4
	c0.6,0,0.6-0.6,1.2-0.6c1.9-1.2,3.7-2.5,6.2-3.1c0.6,0,0.6-0.6,1.2-0.6c1.9-1.2,4.4-1.9,6.8-2.5h0.6c2.5-0.6,4.4-1.2,6.8-1.2h0.6
	v33.6C281.8,217.2,276.8,221.6,273.1,221.6L273.1,221.6z"/>
<path class="st0" d="M148,169.9v-20.5c-6.2-1.9-11.2-4.4-13.7-8.1c-3.1-3.7-4.4-8.1-4.4-13.7c0-5.6,1.9-10,5-13.7
	c3.1-3.7,8.1-5.6,13.7-6.2v-4.4h6.8v5c5,0.6,9.3,2.5,12.4,5c3.1,3.1,5,6.8,5.6,11.8l-12.4,1.9c-0.6-3.7-2.5-6.2-5.6-8.1v19.3
	c8.1,1.9,13.1,5,16.2,8.1c3.1,3.1,4.4,7.5,4.4,13.1s-1.9,10.6-5.6,14.9c-3.7,3.7-8.7,6.2-14.9,7.5v8.7h-6.8v-8.7
	c-5.6-0.6-10-2.5-13.7-6.2c-3.7-3.7-5.6-8.7-6.8-14.9l12.4-1.2c0.6,2.5,1.2,5,3.1,6.8C145.5,168,146.1,169.3,148,169.9L148,169.9z
	 M148,118.9c-1.9,0.6-3.7,1.9-4.4,3.1c-0.6,1.2-1.9,3.1-1.9,5s0.6,3.1,1.9,5c1.2,1.2,2.5,2.5,5,3.7v-16.8H148z M154.8,170.5
	c2.5-0.6,4.4-1.9,6.2-3.1c1.2-1.9,2.5-3.7,2.5-6.2c0-1.9-0.6-4.4-1.9-5.6c-1.2-1.9-3.1-2.5-6.2-3.7v18.7L154.8,170.5z"/>
</svg>
