<?xml version="1.0" encoding="utf-8"?>
<!-- Generator: Adobe Illustrator 26.2.1, SVG Export Plug-In . SVG Version: 6.00 Build 0)  -->
<svg version="1.1" id="Layer_1" xmlns="http://www.w3.org/2000/svg" xmlns:xlink="http://www.w3.org/1999/xlink" x="0px" y="0px"
	 viewBox="0 0 583.2 566.9" style="enable-background:new 0 0 583.2 566.9;" xml:space="preserve">
<style type="text/css">
	.st0{fill:#555555;}
</style>
<path class="st0" d="M294,358.8h17.5v17.5H294V358.8z"/>
<path class="st0" d="M329,358.8h236.2v17.5H329V358.8z"/>
<path class="st0" d="M294,393.8h17.5v17.5H294V393.8z"/>
<path class="st0" d="M329,393.8h236.2v17.5H329V393.8z"/>
<path class="st0" d="M294,428.8h17.5v17.5H294V428.8z"/>
<path class="st0" d="M329,428.8h236.2v17.5H329V428.8z"/>
<path class="st0" d="M294,463.8h17.5v17.5H294V463.8z"/>
<path class="st0" d="M329,463.8h236.2v17.5H329V463.8z"/>
<path class="st0" d="M232.4,347c19.9,23.7,29.2,53.9,26,85.1c-5.4,53.3-49.8,96.9-103.3,101.4c-33.4,2.7-66-9-89.7-32.3
	c-23.7-23.3-35.9-55.8-33.6-89.1c4.1-59.2,55.2-105.6,116.4-105.6h347.1c24.1,0,43.7-19.6,43.7-43.8V96.3h25.8L504,11.3l-60.8,85.1
	H469v105h52.5v61.2c0,14.5-11.8,26.2-26.2,26.2H148.2c-70.3,0-129.1,53.6-133.9,121.9c-2.7,38.4,11.5,75.9,38.8,102.8
	c24.7,24.3,57.8,37.8,92.3,37.8c3.7,0,7.4-0.2,11.1-0.5c61.7-5.2,113-55.5,119.2-117c3.6-35.9-7-70.7-30-98.1L232.4,347z"/>
<path class="st0" d="M49,420.1c0,53.2,43.1,96.2,96.2,96.2s96.2-43.1,96.2-96.2s-43.1-96.2-96.2-96.2S49,366.9,49,420.1z
	 M162.8,367.6c14.5,0,26.2,11.8,26.2,26.2h-17.5c0-4.8-3.9-8.8-8.8-8.8h-35c-4.8,0-8.8,3.9-8.8,8.8v8.8c0,4.8,3.9,8.8,8.8,8.8h35
	c14.5,0,26.2,11.8,26.2,26.2v8.8c0,14.5-11.8,26.2-26.2,26.2H154v17.5h-17.5v-17.5h-8.7c-14.5,0-26.2-11.8-26.2-26.2H119
	c0,4.8,3.9,8.8,8.8,8.8h35c4.8,0,8.8-3.9,8.8-8.8v-8.8c0-4.8-3.9-8.8-8.8-8.8h-35c-14.5,0-26.2-11.8-26.2-26.2v-8.8
	c0-14.5,11.8-26.2,26.2-26.2h8.7v-17.5H154v17.5H162.8z"/>
<path class="st0" d="M180.3,166.3h70v105h-70V166.3z"/>
<path class="st0" d="M267.8,96.3h70v175h-70V96.3z"/>
<path class="st0" d="M355.3,35.1h70v236.3h-70V35.1z"/>
<path class="st0" d="M469,218.8h17.5v17.5H469V218.8z"/>
<path class="st0" d="M469,253.8h17.5v17.5H469V253.8z"/>
</svg>
