<?xml version="1.0" encoding="utf-8"?>
<!-- Generator: Adobe Illustrator 26.2.1, SVG Export Plug-In . SVG Version: 6.00 Build 0)  -->
<svg version="1.1" id="Layer_1" xmlns="http://www.w3.org/2000/svg" xmlns:xlink="http://www.w3.org/1999/xlink" x="0px" y="0px"
	 viewBox="0 0 530 537" style="enable-background:new 0 0 530 537;" xml:space="preserve">
<style type="text/css">
	.st0{fill:#555555;}
</style>
<path class="st0" d="M263,16.2c-6.5,0-11.4,2.5-16.9,5.5c-5.5,3-11.2,6.9-16.8,10.7c-5.6,3.8-11.1,7.6-15.7,10.6
	c-4.7,3-8.9,5.1-9.9,5.4c-1.1,0.3-5.8,0.6-11.3,0.4c-5.5-0.3-12.2-1-19-1.5c-6.8-0.5-13.5-0.9-19.8-0.8c-6.2,0.1-11.8,0.4-17.4,3.6
	c-5.6,3.2-8.6,7.9-11.9,13.2s-6.2,11.5-9.2,17.6c-2.9,6.1-5.8,12.3-8.4,17.2s-5.1,8.8-5.9,9.6c-0.8,0.8-4.7,3.3-9.6,5.9
	c-4.9,2.5-11.1,5.3-17.2,8.3c-6.1,2.9-12.3,6-17.6,9.3c-5.3,3.2-10,6.2-13.2,11.8c-3.2,5.6-3.5,11.2-3.6,17.4
	c-0.1,6.2,0.4,13.1,0.9,19.9c0.5,6.8,1.1,13.4,1.4,19c0.3,5.5-0.1,10.2-0.3,11.3c-0.3,1.1-2.3,5.3-5.3,9.9
	c-3,4.7-6.9,10.1-10.8,15.7c-3.8,5.6-7.6,11.3-10.6,16.7c-3,5.5-5.7,10.5-5.7,17s2.6,11.4,5.7,16.8c3,5.5,6.8,11.1,10.6,16.7
	c3.8,5.6,7.8,11.2,10.8,15.8c3,4.7,5,8.9,5.3,9.9c0.3,1.1,0.6,5.7,0.3,11.2c-0.3,5.5-0.8,12.2-1.4,19c-0.5,6.8-1,13.6-0.9,19.9
	c0.1,6.2,0.4,11.8,3.6,17.4c3.2,5.6,7.9,8.6,13.2,11.9c5.3,3.2,11.5,6.2,17.6,9.2c6.1,2.9,12.3,5.7,17.2,8.3c4.9,2.5,8.8,5.2,9.6,6
	c0.8,0.8,3.3,4.7,5.9,9.6s5.4,10.9,8.4,17.1c2.9,6.1,5.9,12.3,9.2,17.6s6.3,10.1,11.9,13.3c5.6,3.2,11.1,3.5,17.4,3.6
	c6.2,0.1,13-0.4,19.8-0.9c6.8-0.5,13.4-1.1,19-1.4c5.5-0.3,10.2,0.1,11.3,0.4c1.1,0.3,5.3,2.3,9.9,5.3s10.1,6.9,15.7,10.8
	c5.6,3.8,11.4,7.6,16.8,10.6c5.5,3,10.4,5.6,16.9,5.6s11.4-2.6,16.8-5.6c5.5-3,11.3-6.8,16.9-10.6c5.6-3.8,11-7.8,15.7-10.8
	c4.7-3,8.9-5,9.9-5.3c1.1-0.3,5.8-0.6,11.3-0.4c5.5,0.3,12.2,0.8,19,1.4c6.8,0.5,13.5,1,19.8,0.9c6.2-0.1,11.8-0.4,17.4-3.6
	c5.6-3.2,8.6-8,11.9-13.3c3.2-5.3,6.2-11.5,9.2-17.6s5.8-12.1,8.4-17.1c2.5-4.9,5.1-8.8,5.9-9.6c0.8-0.8,4.7-3.4,9.6-6
	c4.9-2.5,11.1-5.3,17.2-8.3c6.1-2.9,12.2-5.9,17.5-9.2c5.3-3.2,10.1-6.3,13.3-11.9c3.2-5.6,3.5-11.2,3.6-17.4
	c0.1-6.2-0.4-13.1-0.9-19.9c-0.5-6.8-1.1-13.4-1.4-19c-0.3-5.5,0.1-10.1,0.3-11.2c0.3-1.1,2.3-5.3,5.3-9.9c3-4.7,6.9-10.2,10.7-15.8
	c3.8-5.6,7.6-11.3,10.6-16.7c3-5.5,5.7-10.4,5.7-16.8s-2.6-11.5-5.7-17s-6.8-11.1-10.6-16.7c-3.8-5.6-7.7-11.1-10.7-15.7
	c-3-4.7-5-8.9-5.3-9.9c-0.3-1.1-0.6-5.8-0.3-11.3c0.3-5.5,0.8-12.2,1.4-19c0.5-6.8,1-13.6,0.9-19.9c-0.1-6.2-0.4-11.8-3.6-17.4
	c-3.2-5.6-8-8.5-13.3-11.8c-5.3-3.2-11.4-6.3-17.5-9.3c-6.1-2.9-12.2-5.7-17.2-8.3c-4.9-2.5-8.8-5.1-9.6-5.9
	c-0.8-0.8-3.3-4.7-5.9-9.6c-2.5-4.9-5.4-11.1-8.4-17.2c-2.9-6.1-5.9-12.3-9.2-17.6c-3.2-5.3-6.3-10-11.9-13.2
	c-5.6-3.2-11.2-3.5-17.4-3.6c-6.2-0.1-13,0.3-19.8,0.8c-6.8,0.5-13.4,1.2-19,1.5c-5.5,0.3-10.3-0.1-11.3-0.4
	c-1.1-0.3-5.3-2.4-9.9-5.4s-10.1-6.8-15.7-10.6c-5.6-3.8-11.4-7.7-16.9-10.7C274.4,18.8,269.5,16.2,263,16.2L263,16.2z M263,33.8
	c0.1,0,4,0.9,8.5,3.4c4.5,2.5,9.8,6,15.3,9.7c5.5,3.7,11,7.8,16.2,11.1c5.2,3.3,9.7,6.1,14.9,7.5c5.3,1.4,10.5,1.2,16.6,0.9
	c6.1-0.3,13-0.8,19.6-1.4c6.6-0.5,13-0.9,18.1-0.8c5.1,0.1,9,1.2,9.1,1.2c0.1,0,2.9,2.8,5.5,7.1c2.6,4.4,5.6,10.2,8.5,16.1
	s5.7,12.2,8.5,17.6c2.8,5.5,5.3,10.1,9.2,13.9c3.9,3.9,8.4,6.3,13.9,9.2c5.5,2.8,11.7,5.6,17.6,8.5c6,2.9,11.7,5.7,16,8.4
	c4.4,2.6,7.2,5.6,7.2,5.7c0,0.1,1.1,3.9,1.2,9c0.1,5.1-0.3,11.5-0.8,18.1c-0.5,6.6-1.2,13.4-1.5,19.6c-0.3,6.1-0.5,11.3,0.9,16.6
	c1.4,5.3,4.2,9.6,7.6,14.8c3.3,5.2,7.2,10.8,11,16.3c3.7,5.5,7.4,10.8,9.8,15.3c2.5,4.5,3.4,8.4,3.4,8.5c0,0.1-0.9,3.9-3.4,8.4
	c-2.5,4.5-6.1,9.9-9.8,15.4c-3.7,5.5-7.6,11-11,16.2c-3.3,5.2-6.2,9.7-7.6,14.9c-1.4,5.3-1.2,10.5-0.9,16.6c0.3,6.1,1,12.8,1.5,19.4
	c0.5,6.6,0.9,13.1,0.8,18.2c-0.1,5.1-1.2,9-1.2,9.1c0,0.1-2.9,2.9-7.2,5.5c-4.4,2.6-10.1,5.5-16,8.4c-6,2.9-12.2,5.8-17.6,8.6
	s-10,5.2-13.9,9c-3.9,3.9-6.3,8.6-9.2,14c-2.8,5.5-5.6,11.7-8.5,17.6c-2.9,6-5.8,11.7-8.5,16c-2.6,4.4-5.5,7.2-5.5,7.2
	c-0.1,0-4,1.1-9.1,1.2c-5.1,0.1-11.5-0.3-18.1-0.8c-6.6-0.5-13.4-1.2-19.6-1.5c-6.1-0.3-11.3-0.5-16.6,0.9
	c-5.3,1.4-9.7,4.2-14.9,7.6s-10.7,7.2-16.2,11c-5.5,3.7-10.8,7.3-15.3,9.7c-4.5,2.5-8.4,3.5-8.5,3.5c-0.1,0-4-1-8.5-3.5
	c-4.5-2.4-9.8-6-15.3-9.7c-5.5-3.7-11-7.6-16.2-11c-5.2-3.3-9.7-6.2-14.9-7.6c-5.3-1.4-10.5-1.2-16.6-0.9c-6.1,0.3-13,1-19.6,1.5
	c-6.6,0.5-13,0.9-18.1,0.8c-5.1-0.1-9-1.2-9-1.2c-0.1,0-3-2.9-5.7-7.2c-2.6-4.4-5.5-10.1-8.4-16c-2.9-6-5.7-12.2-8.5-17.6
	c-2.8-5.5-5.3-10.2-9.2-14c-3.9-3.9-8.4-6.2-13.9-9c-5.5-2.8-11.6-5.7-17.6-8.6c-6-2.9-11.7-5.7-16.1-8.4c-4.4-2.6-7.2-5.5-7.2-5.5
	c0-0.1-1.1-4-1.2-9.1c-0.1-5.1,0.3-11.6,0.8-18.2c0.5-6.6,1.2-13.3,1.5-19.4c0.3-6.1,0.5-11.3-0.9-16.6c-1.4-5.3-4.2-9.8-7.6-14.9
	c-3.3-5.2-7.2-10.7-11-16.2c-3.7-5.5-7.4-10.9-9.8-15.4c-2.5-4.5-3.4-8.3-3.4-8.4c0-0.1,0.9-4,3.4-8.5c2.5-4.5,6.1-9.8,9.8-15.3
	c3.7-5.5,7.6-11.1,11-16.3c3.3-5.2,6.2-9.5,7.6-14.8c1.4-5.3,1.2-10.5,0.9-16.6c-0.3-6.1-1-13-1.5-19.6c-0.5-6.6-0.9-13-0.8-18.1
	c0.1-5.1,1.2-9,1.2-9c0-0.1,2.9-3,7.2-5.7s10.1-5.5,16.1-8.4c6-2.9,12.2-5.7,17.6-8.5c5.5-2.8,10.1-5.3,13.9-9.2
	c3.9-3.9,6.3-8.4,9.2-13.9c2.8-5.5,5.6-11.7,8.5-17.6s5.7-11.8,8.4-16.1c2.6-4.4,5.6-7.1,5.7-7.1c0.1,0,3.9-1.1,9-1.2
	C159,64,165.4,64.5,172,65c6.6,0.5,13.4,1.1,19.6,1.4c6.1,0.3,11.3,0.5,16.6-0.9c5.3-1.4,9.7-4.1,14.9-7.5
	c5.2-3.3,10.7-7.3,16.2-11.1c5.5-3.7,10.8-7.3,15.3-9.7C259,34.7,262.9,33.8,263,33.8L263,33.8z M263,102c-92.7,0-168,75.3-168,168
	C95,362.6,170.3,438,263,438S431,362.6,431,269.9S355.7,102,263,102L263,102z M263,119.5c83.2,0,150.6,67.3,150.6,150.5
	S346.2,420.5,263,420.5c-83.2,0-150.5-67.3-150.5-150.6C112.5,186.7,179.7,119.5,263,119.5L263,119.5z M265.9,163.4L265.9,163.4
	c-4.8,0-8.7,3.9-8.7,8.7v23.4h-7.4c-22.6,0-40.8,18.8-40.8,41.6c0,22.8,18.2,41.6,40.8,41.6h26.5c13,0,23.3,10.5,23.3,24.1
	c0,13.6-10.4,24.1-23.3,24.1l-50.4,0c-2.3,0-4.5,0.9-6.2,2.5c-1.6,1.6-2.6,3.9-2.6,6.2c0,2.3,0.9,4.6,2.6,6.2
	c1.6,1.6,3.9,2.6,6.2,2.6h31.3v23.3l0,0c0,4.8,3.9,8.7,8.7,8.7c2.3,0,4.6-0.9,6.2-2.5c1.6-1.6,2.6-3.9,2.6-6.2v-23.3h1.5
	c22.6,0,40.8-18.8,40.8-41.6c0-22.8-18.2-41.6-40.8-41.6h-26.5c-13,0-23.3-10.5-23.3-24.1c0-13.6,10.4-24.1,23.3-24.1h50.4
	c2.3,0,4.5-0.9,6.2-2.6c1.6-1.6,2.5-3.9,2.5-6.2c0-4.8-3.9-8.7-8.7-8.7h-25.5v-23.4c0-2.3-0.9-4.5-2.6-6.2
	C270.4,164.3,268.2,163.4,265.9,163.4L265.9,163.4z"/>
</svg>
