<?xml version="1.0" encoding="utf-8"?>
<!-- Generator: Adobe Illustrator 26.2.1, SVG Export Plug-In . SVG Version: 6.00 Build 0)  -->
<svg version="1.1" id="Layer_1" xmlns="http://www.w3.org/2000/svg" xmlns:xlink="http://www.w3.org/1999/xlink" x="0px" y="0px"
	 viewBox="0 0 462.2 569" style="enable-background:new 0 0 462.2 569;" xml:space="preserve">
<style type="text/css">
	.st0{fill:#555555;}
</style>
<path class="st0" d="M256.5,465.4H21.9c-3.4,0-6.7-2.8-6.7-6.7V6.7C15.2,2.8,18,0,21.9,0h329.3c3.4,0,6.7,2.8,6.7,6.7v358.4
	c0,3.4-2.8,6.7-6.7,6.7c-48.7,0-87.9,39.8-87.9,87.9C263.2,462.6,259.9,465.4,256.5,465.4L256.5,465.4z M28,452.5h222.3
	c3.4-50.4,43.7-91.3,94.1-94.1V12.9H28L28,452.5z"/>
<path class="st0" d="M351.2,560c-55.4,0-100.8-45.4-100.8-100.8c0-56,44.8-100.8,100.8-100.8S452,403.2,452,459.2
	C452,514.6,406.6,560,351.2,560L351.2,560z M351.2,371.3c-48.7,0-87.9,39.8-87.9,87.9c0,48.2,39.2,87.9,87.9,87.9
	c48.7,0,87.9-39.8,87.9-87.9S399.3,371.3,351.2,371.3z"/>
<path class="st0" d="M327.1,508.5c-1.1,0-2.2,0-3.4-0.6c-3.4-1.7-4.5-5.6-2.8-9l47-85.7c1.7-3.4,5.6-4.5,9-2.8
	c3.4,1.7,4.5,5.6,2.8,9l-47,85.7C331.6,506.8,329.3,508.5,327.1,508.5L327.1,508.5z"/>
<path class="st0" d="M383.1,508.5c-11.8,0-21.8-9.5-21.8-21.8V476c0-11.8,9.5-21.8,21.8-21.8c11.8,0,21.8,9.5,21.8,21.8v10.6
	C404.4,498.4,394.8,508.5,383.1,508.5z M383.1,467.6c-5,0-9,3.9-9,9v10.6c0,5,3.9,9,9,9c5,0,9-3.9,9-9V476
	C391.5,471.5,387.6,467.6,383.1,467.6L383.1,467.6z"/>
<path class="st0" d="M319.2,463.7c-11.8,0-21.8-9.5-21.8-21.8v-10.6c0-11.8,9.5-21.8,21.8-21.8c11.8,0,21.8,9.5,21.8,21.8v10.6
	C340.5,454.2,331,463.7,319.2,463.7z M319.2,422.8c-5,0-9,3.9-9,9v10.6c0,5,3.9,9,9,9c5,0,9-3.9,9-9v-10.6
	C327.6,426.7,323.7,422.8,319.2,422.8z"/>
<path class="st0" d="M299.1,169.1c-1.1,0-2.2,0-3.4-0.6l-109.2-61l-109.8,61c-3.4,1.7-7.3,0.6-9-2.2c-1.7-3.4-0.6-7.3,2.2-9
	l113.1-62.7c1.7-1.1,4.5-1.1,6.2,0l112.6,62.7c3.4,1.7,4.5,5.6,2.2,9C303.6,168,301.3,169.1,299.1,169.1L299.1,169.1z"/>
<path class="st0" d="M276.7,281.1c-3.4,0-6.7-2.8-6.7-6.7l0-123.8c0-3.4,2.8-6.7,6.7-6.7c3.4,0,6.7,2.8,6.7,6.7l0,123.8
	C282.8,278.3,280,281.1,276.7,281.1L276.7,281.1z"/>
<path class="st0" d="M95.8,281.1c-3.4,0-6.7-2.8-6.7-6.7V150.6c0-3.4,2.8-6.7,6.7-6.7c3.4,0,6.7,2.8,6.7,6.7l0,123.8
	C102.5,278.3,99.7,281.1,95.8,281.1L95.8,281.1z"/>
<path class="st0" d="M174.8,281.1c-3.4,0-6.7-2.8-6.7-6.7v-76.7c0-11.8-9.5-21.3-21.3-21.3s-21.3,9.5-21.3,21.3l0,76.7
	c0,3.4-2.8,6.7-6.7,6.7c-3.9,0-6.7-2.8-6.7-6.7l0-76.7c0-18.5,15.1-34.2,34.2-34.2s34.2,15.1,34.2,34.2v76.7
	C180.9,278.3,178.1,281.1,174.8,281.1L174.8,281.1z"/>
<path class="st0" d="M253.2,281.1c-3.4,0-6.7-2.8-6.7-6.7l0-76.7c0-11.8-9.5-21.3-21.3-21.3c-11.8,0-21.3,9.5-21.3,21.3l0,76.7
	c0,3.4-2.8,6.7-6.7,6.7c-3.4,0-6.7-2.8-6.7-6.7l0-76.7c0-18.5,15.1-34.2,34.2-34.2c18.5,0,34.2,15.1,34.2,34.2v76.7
	C259.9,278.3,256.5,281.1,253.2,281.1L253.2,281.1z"/>
<path class="st0" d="M299.1,312.5c-3.4,0-6.7-2.8-6.7-6.7v-20.2c0-2.8-2.2-4.5-4.5-4.5H84.6c-2.8,0-4.5,2.2-4.5,4.5v20.2
	c0,3.4-2.8,6.7-6.7,6.7c-3.4,0-6.7-2.8-6.7-6.7v-20.2c0-9.5,7.8-17.4,17.4-17.4h203.3c9.5,0,17.4,7.8,17.4,17.4v20.2
	C305.2,309.1,302.4,312.5,299.1,312.5L299.1,312.5z"/>
<path class="st0" d="M250.9,312.5H122.1c-3.4,0-6.7-2.8-6.7-6.7c0-3.4,2.8-6.7,6.7-6.7h128.8c3.4,0,6.7,2.8,6.7,6.7
	C257.1,309.1,254.3,312.5,250.9,312.5z"/>
<path class="st0" d="M231.3,341h-89.6c-3.4,0-6.7-2.8-6.7-6.7c0-3.4,2.8-6.7,6.7-6.7h89.6c3.4,0,6.7,2.8,6.7,6.7
	C237.5,338.2,234.7,341,231.3,341z"/>
</svg>
