<?xml version="1.0" encoding="utf-8"?>
<!-- Generator: Adobe Illustrator 26.2.1, SVG Export Plug-In . SVG Version: 6.00 Build 0)  -->
<svg version="1.1" id="Layer_1" xmlns="http://www.w3.org/2000/svg" xmlns:xlink="http://www.w3.org/1999/xlink" x="0px" y="0px"
	 viewBox="0 0 451 565" style="enable-background:new 0 0 451 565;" xml:space="preserve">
<style type="text/css">
	.st0{fill:#EDEDED;}
	.st1{fill:#C68FF2;}
</style>
<path class="st0" d="M231.8,329.2l213-213V86.8l-18.7-18.7L164.9,329.2L231.8,329.2z"/>
<path class="st0" d="M140.2,329.2L413.7,55.8l-33.4-33.4L73.4,329.2L140.2,329.2z"/>
<path class="st0" d="M444.8,232.6l-96.6,96.6h96.6V232.6z"/>
<path class="st0" d="M444.8,141L256.5,329.2h66.8l121.4-121.4L444.8,141z"/>
<path class="st0" d="M127.8-1L7.2,119.6v66.8L194.7-1L127.8-1z"/>
<path class="st0" d="M367.9,10l-10-10H311L7.2,303.8v25.5h41.4L367.9,10z"/>
<path class="st0" d="M7.2-1v95.8L103.1-1H7.2z"/>
<path class="st0" d="M219.4-1L7.2,211.2V278l279-279L219.4-1z"/>
<path class="st1" d="M242.5,430.1c-2.2-2-4.9-3.4-8.2-4.1c-2.5-0.6-7.3-0.8-14.5-0.8h-8v58.1H225c5,0,8.5-0.3,10.7-0.9
	c2.9-0.7,5.2-1.9,7.1-3.6c1.9-1.7,3.4-4.5,4.7-8.5s1.8-9.3,1.8-16.1c0-6.8-0.6-12-1.8-15.6C246.3,435,244.6,432.2,242.5,430.1
	L242.5,430.1z"/>
<path class="st1" d="M151.4,425.8c-2.1-0.4-6.4-0.6-12.7-0.6h-8.6v24.9h9.7c7,0,11.7-0.5,14-1.4c2.3-0.9,4.2-2.3,5.5-4.3
	c1.3-1.9,2-4.2,2-6.8c0-3.2-0.9-5.8-2.8-7.9C156.7,427.6,154.3,426.3,151.4,425.8L151.4,425.8z"/>
<path class="st1" d="M444.8,346.7H7.2V560h437.5V346.7z M176.6,450.9c-2,3.7-4.4,6.5-7.4,8.6c-3,2.1-6.1,3.5-9.2,4.1
	c-4.2,0.8-10.3,1.2-18.4,1.2h-11.6V498l-17.7,0v-87.7h28.4c10.8,0,17.8,0.4,21.1,1.3c5,1.3,9.2,4.2,12.6,8.6
	c3.4,4.4,5.1,10.1,5.1,17.1C179.6,442.7,178.6,447.2,176.6,450.9L176.6,450.9z M264.9,473.7c-2.2,6.4-5.3,11.5-9.4,15.5
	c-3.1,3-7.2,5.3-12.4,7c-3.9,1.2-9.1,1.8-15.7,1.8h-33.3v-87.7h32.4c7.3,0,12.9,0.6,16.7,1.7c5.1,1.5,9.6,4.2,13.2,8.1
	c3.7,3.9,6.5,8.6,8.4,14.2s2.9,12.5,2.9,20.7C267.6,462.2,266.7,468.5,264.9,473.7L264.9,473.7z M342.8,425.2h-42.4V446H337v14.8
	h-36.6v37.3h-17.7v-87.7h60.1V425.2z"/>
</svg>
