<?xml version="1.0" encoding="utf-8"?>
<!-- Generator: Adobe Illustrator 26.2.1, SVG Export Plug-In . SVG Version: 6.00 Build 0)  -->
<svg version="1.1" id="Layer_1" xmlns="http://www.w3.org/2000/svg" xmlns:xlink="http://www.w3.org/1999/xlink" x="0px" y="0px"
	 viewBox="0 0 598.3 584.2" style="enable-background:new 0 0 598.3 584.2;" xml:space="preserve">
<style type="text/css">
	.st0{fill:#555555;}
</style>
<path class="st0" d="M571.8,227.5h-70v-43.8c0-14.5-11.8-26.2-26.2-26.2h-350c-14.5,0-26.2,11.8-26.2,26.2v43.8h-70
	c-4.8,0-8.8,3.9-8.8,8.8v52.5c0,4.8,3.9,8.8,8.8,8.8H38v253.8c0,4.8,3.9,8.8,8.8,8.8h507.5c4.8,0,8.8-3.9,8.8-8.8V297.5h8.8
	c4.8,0,8.8-3.9,8.8-8.8v-52.5C580.5,231.4,576.6,227.5,571.8,227.5z M116.8,183.8c0-4.8,3.9-8.8,8.8-8.8h350c4.8,0,8.8,3.9,8.8,8.8
	v43.8H116.8V183.8z M55.5,350H178v192.5H55.5V350z M291.8,350v192.5h-96.2V350H291.8z M405.5,350v192.5h-96.2V350H405.5z M423,542.5
	V350h122.5v192.5H423z M545.5,332.5h-490v-35h490V332.5z M563,280H38v-35h525V280z"/>
<path class="st0" d="M300.5,140c38.6,0,70-31.4,70-70s-31.4-70-70-70s-70,31.4-70,70S261.9,140,300.5,140z M300.5,17.5
	c29,0,52.5,23.5,52.5,52.5s-23.5,52.5-52.5,52.5S248,99,248,70S271.6,17.5,300.5,17.5z"/>
<path class="st0" d="M311.8,93.7c1.7,1.7,3.9,2.6,6.2,2.6s4.5-0.9,6.2-2.6c3.4-3.4,3.4-9,0-12.4l-14.9-14.9V35
	c0-4.8-3.9-8.8-8.8-8.8s-8.8,3.9-8.8,8.8v35c0,2.3,0.9,4.6,2.6,6.2L311.8,93.7z"/>
</svg>
