<?xml version="1.0" encoding="utf-8"?>
<!-- Generator: Adobe Illustrator 26.2.1, SVG Export Plug-In . SVG Version: 6.00 Build 0)  -->
<svg version="1.1" id="Layer_1" xmlns="http://www.w3.org/2000/svg" xmlns:xlink="http://www.w3.org/1999/xlink" x="0px" y="0px"
	 viewBox="0 0 398 423" style="enable-background:new 0 0 398 423;" xml:space="preserve">
<style type="text/css">
	.st0{fill:#555555;}
</style>
<path class="st0" d="M146.7,298.1c-2.3-2.3-3.6-5.5-3.6-8.8c0-3.3,1.4-6.4,3.7-8.7c2.4-2.3,5.5-3.5,8.8-3.5c3.3,0.1,6.4,1.5,8.6,3.9
	c9,8,20.9,12.1,32.9,11.4c15.9,0,24.3-6,24.3-17v0c0.3-4.3-1.2-8.5-4.2-11.6c-3.4-2.9-7.7-4.6-12.2-4.8l-16.6-2.3v0
	c-9.9-0.9-19.2-4.9-26.7-11.4c-6.9-7.3-10.4-17.1-9.9-27c-0.2-9.7,3.2-19.2,9.5-26.6c6.3-7.4,15.1-12.3,24.8-13.6l0-14.2h0
	c0.5-6.1,5.6-10.7,11.7-10.7c6.1,0.2,11.2,4.9,11.7,11v13.1c12.8,0.9,24.9,6.2,34.3,15c2.5,2.2,3.9,5.4,3.9,8.8
	c0,4.9-2.9,9.2-7.4,11.1c-4.5,1.8-9.7,0.8-13-2.7l0,0h0c-7.7-6.8-17.9-10.2-28.2-9.4c-14.3,0-21.2,7.9-21.2,17.4
	c-0.1,3.7,1.4,7.3,4.1,9.9c3.6,3.1,8,4.9,12.7,5.4l16.2,2.3l0,0c9.7,0.7,18.9,4.4,26.3,10.6c7.5,7.8,11.3,18.4,10.6,29.2
	c-0.1,10.3-4.1,20.2-11.2,27.7s-16.7,12.1-27,12.8v13.2h-0.1h0c-0.1,6.3-5.3,11.3-11.6,11.3c-6.3,0-11.4-5-11.6-11.3h-0.1v-12.6v0
	c-15-0.7-29.1-6.9-39.7-17.5L146.7,298.1z M299.2,112.4L313.4,77c5.8-14.4,4-30.7-4.7-43.5C300,20.7,285.6,13,270.1,13H127.9
	c-15.5,0-30,7.7-38.6,20.5C80.6,46.3,78.9,62.6,84.6,77l14.2,35.4c-26.5,16.8-48.3,40.1-63.4,67.6c-15.1,27.5-23,58.4-23,89.7V293
	c0,30.9,12.3,60.6,34.2,82.5s51.6,34.2,82.5,34.2h140c30.9,0,60.6-12.3,82.5-34.2c21.9-21.9,34.2-51.6,34.2-82.5v-23.3
	c0-31.4-7.9-62.2-23-89.7C347.5,152.4,325.7,129.2,299.2,112.4L299.2,112.4z M106.3,68.3c-2.9-7.2-2-15.3,2.3-21.8
	c4.3-6.4,11.6-10.3,19.3-10.3h142.1c7.7,0,15,3.8,19.3,10.3c4.3,6.4,5.2,14.6,2.3,21.8L278.7,101c-24.9-11.9-52.1-18-79.7-18
	c-27.6,0-54.8,6.2-79.7,18L106.3,68.3z M362.3,293c0,24.7-9.9,48.5-27.4,66c-17.5,17.5-41.2,27.3-66,27.4H129
	c-24.7,0-48.5-9.9-66-27.4s-27.3-41.2-27.4-66v-23.3c0-58.4,31.1-112.3,81.7-141.4c50.5-29.2,112.8-29.2,163.3,0
	c50.5,29.2,81.7,83.1,81.7,141.4L362.3,293z"/>
</svg>
